<svg width="140" height="140" viewBox="0 0 140 140" fill="none" xmlns="http://www.w3.org/2000/svg">
<g id="&#231;&#130;&#185;&#233;&#164;&#144;&#231;&#179;&#187;&#231;&#187;&#159; 1" clip-path="url(#clip0_2147_85003)">
<path id="Vector" d="M140 0H0V140H140V0Z" fill="white"/>
<g id="Group">
<path id="Vector_2" d="M14.4829 9.65527H9.65527V14.4829H14.4829V9.65527Z" fill="black"/>
<path id="Vector_3" d="M19.3105 9.65527H14.4829V14.4829H19.3105V9.65527Z" fill="black"/>
<path id="Vector_4" d="M24.1381 9.65527H19.3105V14.4829H24.1381V9.65527Z" fill="black"/>
<path id="Vector_5" d="M28.9658 9.65527H24.1382V14.4829H28.9658V9.65527Z" fill="black"/>
<path id="Vector_6" d="M33.7934 9.65527H28.9658V14.4829H33.7934V9.65527Z" fill="black"/>
<path id="Vector_7" d="M38.6206 9.65527H33.793V14.4829H38.6206V9.65527Z" fill="black"/>
<path id="Vector_8" d="M43.4482 9.65527H38.6206V14.4829H43.4482V9.65527Z" fill="black"/>
<path id="Vector_9" d="M53.1035 9.65527H48.2759V14.4829H53.1035V9.65527Z" fill="black"/>
<path id="Vector_10" d="M72.414 9.65527H67.5864V14.4829H72.414V9.65527Z" fill="black"/>
<path id="Vector_11" d="M77.2416 9.65527H72.4141V14.4829H77.2416V9.65527Z" fill="black"/>
<path id="Vector_12" d="M82.0693 9.65527H77.2417V14.4829H82.0693V9.65527Z" fill="black"/>
<path id="Vector_13" d="M86.8964 9.65527H82.0688V14.4829H86.8964V9.65527Z" fill="black"/>
<path id="Vector_14" d="M101.379 9.65527H96.5518V14.4829H101.379V9.65527Z" fill="black"/>
<path id="Vector_15" d="M106.207 9.65527H101.379V14.4829H106.207V9.65527Z" fill="black"/>
<path id="Vector_16" d="M111.035 9.65527H106.207V14.4829H111.035V9.65527Z" fill="black"/>
<path id="Vector_17" d="M115.862 9.65527H111.035V14.4829H115.862V9.65527Z" fill="black"/>
<path id="Vector_18" d="M120.69 9.65527H115.862V14.4829H120.69V9.65527Z" fill="black"/>
<path id="Vector_19" d="M125.518 9.65527H120.69V14.4829H125.518V9.65527Z" fill="black"/>
<path id="Vector_20" d="M130.345 9.65527H125.518V14.4829H130.345V9.65527Z" fill="black"/>
<path id="Vector_21" d="M14.4829 14.4824H9.65527V19.31H14.4829V14.4824Z" fill="black"/>
<path id="Vector_22" d="M43.4482 14.4824H38.6206V19.31H43.4482V14.4824Z" fill="black"/>
<path id="Vector_23" d="M57.9311 14.4824H53.1035V19.31H57.9311V14.4824Z" fill="black"/>
<path id="Vector_24" d="M67.5864 14.4824H62.7588V19.31H67.5864V14.4824Z" fill="black"/>
<path id="Vector_25" d="M72.414 14.4824H67.5864V19.31H72.414V14.4824Z" fill="black"/>
<path id="Vector_26" d="M77.2416 14.4824H72.4141V19.31H77.2416V14.4824Z" fill="black"/>
<path id="Vector_27" d="M86.8964 14.4824H82.0688V19.31H86.8964V14.4824Z" fill="black"/>
<path id="Vector_28" d="M101.379 14.4824H96.5518V19.31H101.379V14.4824Z" fill="black"/>
<path id="Vector_29" d="M130.345 14.4824H125.518V19.31H130.345V14.4824Z" fill="black"/>
<path id="Vector_30" d="M14.4829 19.3105H9.65527V24.1381H14.4829V19.3105Z" fill="black"/>
<path id="Vector_31" d="M24.1381 19.3105H19.3105V24.1381H24.1381V19.3105Z" fill="black"/>
<path id="Vector_32" d="M28.9658 19.3105H24.1382V24.1381H28.9658V19.3105Z" fill="black"/>
<path id="Vector_33" d="M33.7934 19.3105H28.9658V24.1381H33.7934V19.3105Z" fill="black"/>
<path id="Vector_34" d="M43.4482 19.3105H38.6206V24.1381H43.4482V19.3105Z" fill="black"/>
<path id="Vector_35" d="M57.9311 19.3105H53.1035V24.1381H57.9311V19.3105Z" fill="black"/>
<path id="Vector_36" d="M72.414 19.3105H67.5864V24.1381H72.414V19.3105Z" fill="black"/>
<path id="Vector_37" d="M86.8964 19.3105H82.0688V24.1381H86.8964V19.3105Z" fill="black"/>
<path id="Vector_38" d="M91.7241 19.3105H86.8965V24.1381H91.7241V19.3105Z" fill="black"/>
<path id="Vector_39" d="M101.379 19.3105H96.5518V24.1381H101.379V19.3105Z" fill="black"/>
<path id="Vector_40" d="M111.035 19.3105H106.207V24.1381H111.035V19.3105Z" fill="black"/>
<path id="Vector_41" d="M115.862 19.3105H111.035V24.1381H115.862V19.3105Z" fill="black"/>
<path id="Vector_42" d="M120.69 19.3105H115.862V24.1381H120.69V19.3105Z" fill="black"/>
<path id="Vector_43" d="M130.345 19.3105H125.518V24.1381H130.345V19.3105Z" fill="black"/>
<path id="Vector_44" d="M14.4829 24.1377H9.65527V28.9653H14.4829V24.1377Z" fill="black"/>
<path id="Vector_45" d="M24.1381 24.1377H19.3105V28.9653H24.1381V24.1377Z" fill="black"/>
<path id="Vector_46" d="M28.9658 24.1377H24.1382V28.9653H28.9658V24.1377Z" fill="black"/>
<path id="Vector_47" d="M33.7934 24.1377H28.9658V28.9653H33.7934V24.1377Z" fill="black"/>
<path id="Vector_48" d="M43.4482 24.1377H38.6206V28.9653H43.4482V24.1377Z" fill="black"/>
<path id="Vector_49" d="M53.1035 24.1377H48.2759V28.9653H53.1035V24.1377Z" fill="black"/>
<path id="Vector_50" d="M57.9311 24.1377H53.1035V28.9653H57.9311V24.1377Z" fill="black"/>
<path id="Vector_51" d="M67.5864 24.1377H62.7588V28.9653H67.5864V24.1377Z" fill="black"/>
<path id="Vector_52" d="M72.414 24.1377H67.5864V28.9653H72.414V24.1377Z" fill="black"/>
<path id="Vector_53" d="M82.0693 24.1377H77.2417V28.9653H82.0693V24.1377Z" fill="black"/>
<path id="Vector_54" d="M86.8964 24.1377H82.0688V28.9653H86.8964V24.1377Z" fill="black"/>
<path id="Vector_55" d="M91.7241 24.1377H86.8965V28.9653H91.7241V24.1377Z" fill="black"/>
<path id="Vector_56" d="M101.379 24.1377H96.5518V28.9653H101.379V24.1377Z" fill="black"/>
<path id="Vector_57" d="M111.035 24.1377H106.207V28.9653H111.035V24.1377Z" fill="black"/>
<path id="Vector_58" d="M115.862 24.1377H111.035V28.9653H115.862V24.1377Z" fill="black"/>
<path id="Vector_59" d="M120.69 24.1377H115.862V28.9653H120.69V24.1377Z" fill="black"/>
<path id="Vector_60" d="M130.345 24.1377H125.518V28.9653H130.345V24.1377Z" fill="black"/>
<path id="Vector_61" d="M14.4829 28.9658H9.65527V33.7934H14.4829V28.9658Z" fill="black"/>
<path id="Vector_62" d="M24.1381 28.9658H19.3105V33.7934H24.1381V28.9658Z" fill="black"/>
<path id="Vector_63" d="M28.9658 28.9658H24.1382V33.7934H28.9658V28.9658Z" fill="black"/>
<path id="Vector_64" d="M33.7934 28.9658H28.9658V33.7934H33.7934V28.9658Z" fill="black"/>
<path id="Vector_65" d="M43.4482 28.9658H38.6206V33.7934H43.4482V28.9658Z" fill="black"/>
<path id="Vector_66" d="M57.9311 28.9658H53.1035V33.7934H57.9311V28.9658Z" fill="black"/>
<path id="Vector_67" d="M67.5864 28.9658H62.7588V33.7934H67.5864V28.9658Z" fill="black"/>
<path id="Vector_68" d="M72.414 28.9658H67.5864V33.7934H72.414V28.9658Z" fill="black"/>
<path id="Vector_69" d="M77.2416 28.9658H72.4141V33.7934H77.2416V28.9658Z" fill="black"/>
<path id="Vector_70" d="M82.0693 28.9658H77.2417V33.7934H82.0693V28.9658Z" fill="black"/>
<path id="Vector_71" d="M101.379 28.9658H96.5518V33.7934H101.379V28.9658Z" fill="black"/>
<path id="Vector_72" d="M111.035 28.9658H106.207V33.7934H111.035V28.9658Z" fill="black"/>
<path id="Vector_73" d="M115.862 28.9658H111.035V33.7934H115.862V28.9658Z" fill="black"/>
<path id="Vector_74" d="M120.69 28.9658H115.862V33.7934H120.69V28.9658Z" fill="black"/>
<path id="Vector_75" d="M130.345 28.9658H125.518V33.7934H130.345V28.9658Z" fill="black"/>
<path id="Vector_76" d="M14.4829 33.793H9.65527V38.6206H14.4829V33.793Z" fill="black"/>
<path id="Vector_77" d="M43.4482 33.793H38.6206V38.6206H43.4482V33.793Z" fill="black"/>
<path id="Vector_78" d="M57.9311 33.793H53.1035V38.6206H57.9311V33.793Z" fill="black"/>
<path id="Vector_79" d="M62.7587 33.793H57.9312V38.6206H62.7587V33.793Z" fill="black"/>
<path id="Vector_80" d="M77.2416 33.793H72.4141V38.6206H77.2416V33.793Z" fill="black"/>
<path id="Vector_81" d="M82.0693 33.793H77.2417V38.6206H82.0693V33.793Z" fill="black"/>
<path id="Vector_82" d="M86.8964 33.793H82.0688V38.6206H86.8964V33.793Z" fill="black"/>
<path id="Vector_83" d="M101.379 33.793H96.5518V38.6206H101.379V33.793Z" fill="black"/>
<path id="Vector_84" d="M130.345 33.793H125.518V38.6206H130.345V33.793Z" fill="black"/>
<path id="Vector_85" d="M14.4829 38.6211H9.65527V43.4487H14.4829V38.6211Z" fill="black"/>
<path id="Vector_86" d="M19.3105 38.6211H14.4829V43.4487H19.3105V38.6211Z" fill="black"/>
<path id="Vector_87" d="M24.1381 38.6211H19.3105V43.4487H24.1381V38.6211Z" fill="black"/>
<path id="Vector_88" d="M28.9658 38.6211H24.1382V43.4487H28.9658V38.6211Z" fill="black"/>
<path id="Vector_89" d="M33.7934 38.6211H28.9658V43.4487H33.7934V38.6211Z" fill="black"/>
<path id="Vector_90" d="M38.6206 38.6211H33.793V43.4487H38.6206V38.6211Z" fill="black"/>
<path id="Vector_91" d="M43.4482 38.6211H38.6206V43.4487H43.4482V38.6211Z" fill="black"/>
<path id="Vector_92" d="M53.1035 38.6211H48.2759V43.4487H53.1035V38.6211Z" fill="black"/>
<path id="Vector_93" d="M62.7587 38.6211H57.9312V43.4487H62.7587V38.6211Z" fill="black"/>
<path id="Vector_94" d="M72.414 38.6211H67.5864V43.4487H72.414V38.6211Z" fill="black"/>
<path id="Vector_95" d="M82.0693 38.6211H77.2417V43.4487H82.0693V38.6211Z" fill="black"/>
<path id="Vector_96" d="M91.7241 38.6211H86.8965V43.4487H91.7241V38.6211Z" fill="black"/>
<path id="Vector_97" d="M101.379 38.6211H96.5518V43.4487H101.379V38.6211Z" fill="black"/>
<path id="Vector_98" d="M106.207 38.6211H101.379V43.4487H106.207V38.6211Z" fill="black"/>
<path id="Vector_99" d="M111.035 38.6211H106.207V43.4487H111.035V38.6211Z" fill="black"/>
<path id="Vector_100" d="M115.862 38.6211H111.035V43.4487H115.862V38.6211Z" fill="black"/>
<path id="Vector_101" d="M120.69 38.6211H115.862V43.4487H120.69V38.6211Z" fill="black"/>
<path id="Vector_102" d="M125.518 38.6211H120.69V43.4487H125.518V38.6211Z" fill="black"/>
<path id="Vector_103" d="M130.345 38.6211H125.518V43.4487H130.345V38.6211Z" fill="black"/>
<path id="Vector_104" d="M82.0693 43.4482H77.2417V48.2758H82.0693V43.4482Z" fill="black"/>
<path id="Vector_105" d="M24.1381 48.2764H19.3105V53.104H24.1381V48.2764Z" fill="black"/>
<path id="Vector_106" d="M33.7934 48.2764H28.9658V53.104H33.7934V48.2764Z" fill="black"/>
<path id="Vector_107" d="M38.6206 48.2764H33.793V53.104H38.6206V48.2764Z" fill="black"/>
<path id="Vector_108" d="M43.4482 48.2764H38.6206V53.104H43.4482V48.2764Z" fill="black"/>
<path id="Vector_109" d="M53.1035 48.2764H48.2759V53.104H53.1035V48.2764Z" fill="black"/>
<path id="Vector_110" d="M57.9311 48.2764H53.1035V53.104H57.9311V48.2764Z" fill="black"/>
<path id="Vector_111" d="M72.414 48.2764H67.5864V53.104H72.414V48.2764Z" fill="black"/>
<path id="Vector_112" d="M91.7241 48.2764H86.8965V53.104H91.7241V48.2764Z" fill="black"/>
<path id="Vector_113" d="M96.5517 48.2764H91.7241V53.104H96.5517V48.2764Z" fill="black"/>
<path id="Vector_114" d="M115.862 48.2764H111.035V53.104H115.862V48.2764Z" fill="black"/>
<path id="Vector_115" d="M130.345 48.2764H125.518V53.104H130.345V48.2764Z" fill="black"/>
<path id="Vector_116" d="M14.4829 53.1035H9.65527V57.9311H14.4829V53.1035Z" fill="black"/>
<path id="Vector_117" d="M24.1381 53.1035H19.3105V57.9311H24.1381V53.1035Z" fill="black"/>
<path id="Vector_118" d="M28.9658 53.1035H24.1382V57.9311H28.9658V53.1035Z" fill="black"/>
<path id="Vector_119" d="M38.6206 53.1035H33.793V57.9311H38.6206V53.1035Z" fill="black"/>
<path id="Vector_120" d="M48.2758 53.1035H43.4482V57.9311H48.2758V53.1035Z" fill="black"/>
<path id="Vector_121" d="M53.1035 53.1035H48.2759V57.9311H53.1035V53.1035Z" fill="black"/>
<path id="Vector_122" d="M67.5864 53.1035H62.7588V57.9311H67.5864V53.1035Z" fill="black"/>
<path id="Vector_123" d="M72.414 53.1035H67.5864V57.9311H72.414V53.1035Z" fill="black"/>
<path id="Vector_124" d="M86.8964 53.1035H82.0688V57.9311H86.8964V53.1035Z" fill="black"/>
<path id="Vector_125" d="M96.5517 53.1035H91.7241V57.9311H96.5517V53.1035Z" fill="black"/>
<path id="Vector_126" d="M101.379 53.1035H96.5518V57.9311H101.379V53.1035Z" fill="black"/>
<path id="Vector_127" d="M111.035 53.1035H106.207V57.9311H111.035V53.1035Z" fill="black"/>
<path id="Vector_128" d="M115.862 53.1035H111.035V57.9311H115.862V53.1035Z" fill="black"/>
<path id="Vector_129" d="M120.69 53.1035H115.862V57.9311H120.69V53.1035Z" fill="black"/>
<path id="Vector_130" d="M130.345 53.1035H125.518V57.9311H130.345V53.1035Z" fill="black"/>
<path id="Vector_131" d="M14.4829 57.9307H9.65527V62.7583H14.4829V57.9307Z" fill="black"/>
<path id="Vector_132" d="M28.9658 57.9307H24.1382V62.7583H28.9658V57.9307Z" fill="black"/>
<path id="Vector_133" d="M38.6206 57.9307H33.793V62.7583H38.6206V57.9307Z" fill="black"/>
<path id="Vector_134" d="M43.4482 57.9307H38.6206V62.7583H43.4482V57.9307Z" fill="black"/>
<path id="Vector_135" d="M48.2758 57.9307H43.4482V62.7583H48.2758V57.9307Z" fill="black"/>
<path id="Vector_136" d="M57.9311 57.9307H53.1035V62.7583H57.9311V57.9307Z" fill="black"/>
<path id="Vector_137" d="M62.7587 57.9307H57.9312V62.7583H62.7587V57.9307Z" fill="black"/>
<path id="Vector_138" d="M72.414 57.9307H67.5864V62.7583H72.414V57.9307Z" fill="black"/>
<path id="Vector_139" d="M86.8964 57.9307H82.0688V62.7583H86.8964V57.9307Z" fill="black"/>
<path id="Vector_140" d="M96.5517 57.9307H91.7241V62.7583H96.5517V57.9307Z" fill="black"/>
<path id="Vector_141" d="M101.379 57.9307H96.5518V62.7583H101.379V57.9307Z" fill="black"/>
<path id="Vector_142" d="M106.207 57.9307H101.379V62.7583H106.207V57.9307Z" fill="black"/>
<path id="Vector_143" d="M115.862 57.9307H111.035V62.7583H115.862V57.9307Z" fill="black"/>
<path id="Vector_144" d="M120.69 57.9307H115.862V62.7583H120.69V57.9307Z" fill="black"/>
<path id="Vector_145" d="M14.4829 62.7588H9.65527V67.5864H14.4829V62.7588Z" fill="black"/>
<path id="Vector_146" d="M28.9658 62.7588H24.1382V67.5864H28.9658V62.7588Z" fill="black"/>
<path id="Vector_147" d="M38.6206 62.7588H33.793V67.5864H38.6206V62.7588Z" fill="black"/>
<path id="Vector_148" d="M57.9311 62.7588H53.1035V67.5864H57.9311V62.7588Z" fill="black"/>
<path id="Vector_149" d="M62.7587 62.7588H57.9312V67.5864H62.7587V62.7588Z" fill="black"/>
<path id="Vector_150" d="M72.414 62.7588H67.5864V67.5864H72.414V62.7588Z" fill="black"/>
<path id="Vector_151" d="M86.8964 62.7588H82.0688V67.5864H86.8964V62.7588Z" fill="black"/>
<path id="Vector_152" d="M91.7241 62.7588H86.8965V67.5864H91.7241V62.7588Z" fill="black"/>
<path id="Vector_153" d="M101.379 62.7588H96.5518V67.5864H101.379V62.7588Z" fill="black"/>
<path id="Vector_154" d="M106.207 62.7588H101.379V67.5864H106.207V62.7588Z" fill="black"/>
<path id="Vector_155" d="M111.035 62.7588H106.207V67.5864H111.035V62.7588Z" fill="black"/>
<path id="Vector_156" d="M120.69 62.7588H115.862V67.5864H120.69V62.7588Z" fill="black"/>
<path id="Vector_157" d="M125.518 62.7588H120.69V67.5864H125.518V62.7588Z" fill="black"/>
<path id="Vector_158" d="M130.345 62.7588H125.518V67.5864H130.345V62.7588Z" fill="black"/>
<path id="Vector_159" d="M19.3105 67.5859H14.4829V72.4135H19.3105V67.5859Z" fill="black"/>
<path id="Vector_160" d="M24.1381 67.5859H19.3105V72.4135H24.1381V67.5859Z" fill="black"/>
<path id="Vector_161" d="M28.9658 67.5859H24.1382V72.4135H28.9658V67.5859Z" fill="black"/>
<path id="Vector_162" d="M33.7934 67.5859H28.9658V72.4135H33.7934V67.5859Z" fill="black"/>
<path id="Vector_163" d="M43.4482 67.5859H38.6206V72.4135H43.4482V67.5859Z" fill="black"/>
<path id="Vector_164" d="M48.2758 67.5859H43.4482V72.4135H48.2758V67.5859Z" fill="black"/>
<path id="Vector_165" d="M67.5864 67.5859H62.7588V72.4135H67.5864V67.5859Z" fill="black"/>
<path id="Vector_166" d="M72.414 67.5859H67.5864V72.4135H72.414V67.5859Z" fill="black"/>
<path id="Vector_167" d="M77.2416 67.5859H72.4141V72.4135H77.2416V67.5859Z" fill="black"/>
<path id="Vector_168" d="M82.0693 67.5859H77.2417V72.4135H82.0693V67.5859Z" fill="black"/>
<path id="Vector_169" d="M86.8964 67.5859H82.0688V72.4135H86.8964V67.5859Z" fill="black"/>
<path id="Vector_170" d="M106.207 67.5859H101.379V72.4135H106.207V67.5859Z" fill="black"/>
<path id="Vector_171" d="M130.345 67.5859H125.518V72.4135H130.345V67.5859Z" fill="black"/>
<path id="Vector_172" d="M33.7934 72.4141H28.9658V77.2416H33.7934V72.4141Z" fill="black"/>
<path id="Vector_173" d="M38.6206 72.4141H33.793V77.2416H38.6206V72.4141Z" fill="black"/>
<path id="Vector_174" d="M48.2758 72.4141H43.4482V77.2416H48.2758V72.4141Z" fill="black"/>
<path id="Vector_175" d="M53.1035 72.4141H48.2759V77.2416H53.1035V72.4141Z" fill="black"/>
<path id="Vector_176" d="M62.7587 72.4141H57.9312V77.2416H62.7587V72.4141Z" fill="black"/>
<path id="Vector_177" d="M86.8964 72.4141H82.0688V77.2416H86.8964V72.4141Z" fill="black"/>
<path id="Vector_178" d="M101.379 72.4141H96.5518V77.2416H101.379V72.4141Z" fill="black"/>
<path id="Vector_179" d="M106.207 72.4141H101.379V77.2416H106.207V72.4141Z" fill="black"/>
<path id="Vector_180" d="M111.035 72.4141H106.207V77.2416H111.035V72.4141Z" fill="black"/>
<path id="Vector_181" d="M115.862 72.4141H111.035V77.2416H115.862V72.4141Z" fill="black"/>
<path id="Vector_182" d="M120.69 72.4141H115.862V77.2416H120.69V72.4141Z" fill="black"/>
<path id="Vector_183" d="M125.518 72.4141H120.69V77.2416H125.518V72.4141Z" fill="black"/>
<path id="Vector_184" d="M14.4829 77.2412H9.65527V82.0688H14.4829V77.2412Z" fill="black"/>
<path id="Vector_185" d="M33.7934 77.2412H28.9658V82.0688H33.7934V77.2412Z" fill="black"/>
<path id="Vector_186" d="M38.6206 77.2412H33.793V82.0688H38.6206V77.2412Z" fill="black"/>
<path id="Vector_187" d="M43.4482 77.2412H38.6206V82.0688H43.4482V77.2412Z" fill="black"/>
<path id="Vector_188" d="M48.2758 77.2412H43.4482V82.0688H48.2758V77.2412Z" fill="black"/>
<path id="Vector_189" d="M53.1035 77.2412H48.2759V82.0688H53.1035V77.2412Z" fill="black"/>
<path id="Vector_190" d="M57.9311 77.2412H53.1035V82.0688H57.9311V77.2412Z" fill="black"/>
<path id="Vector_191" d="M62.7587 77.2412H57.9312V82.0688H62.7587V77.2412Z" fill="black"/>
<path id="Vector_192" d="M67.5864 77.2412H62.7588V82.0688H67.5864V77.2412Z" fill="black"/>
<path id="Vector_193" d="M72.414 77.2412H67.5864V82.0688H72.414V77.2412Z" fill="black"/>
<path id="Vector_194" d="M82.0693 77.2412H77.2417V82.0688H82.0693V77.2412Z" fill="black"/>
<path id="Vector_195" d="M106.207 77.2412H101.379V82.0688H106.207V77.2412Z" fill="black"/>
<path id="Vector_196" d="M115.862 77.2412H111.035V82.0688H115.862V77.2412Z" fill="black"/>
<path id="Vector_197" d="M120.69 77.2412H115.862V82.0688H120.69V77.2412Z" fill="black"/>
<path id="Vector_198" d="M19.3105 82.0693H14.4829V86.8969H19.3105V82.0693Z" fill="black"/>
<path id="Vector_199" d="M24.1381 82.0693H19.3105V86.8969H24.1381V82.0693Z" fill="black"/>
<path id="Vector_200" d="M28.9658 82.0693H24.1382V86.8969H28.9658V82.0693Z" fill="black"/>
<path id="Vector_201" d="M38.6206 82.0693H33.793V86.8969H38.6206V82.0693Z" fill="black"/>
<path id="Vector_202" d="M48.2758 82.0693H43.4482V86.8969H48.2758V82.0693Z" fill="black"/>
<path id="Vector_203" d="M57.9311 82.0693H53.1035V86.8969H57.9311V82.0693Z" fill="black"/>
<path id="Vector_204" d="M62.7587 82.0693H57.9312V86.8969H62.7587V82.0693Z" fill="black"/>
<path id="Vector_205" d="M67.5864 82.0693H62.7588V86.8969H67.5864V82.0693Z" fill="black"/>
<path id="Vector_206" d="M77.2416 82.0693H72.4141V86.8969H77.2416V82.0693Z" fill="black"/>
<path id="Vector_207" d="M82.0693 82.0693H77.2417V86.8969H82.0693V82.0693Z" fill="black"/>
<path id="Vector_208" d="M86.8964 82.0693H82.0688V86.8969H86.8964V82.0693Z" fill="black"/>
<path id="Vector_209" d="M101.379 82.0693H96.5518V86.8969H101.379V82.0693Z" fill="black"/>
<path id="Vector_210" d="M106.207 82.0693H101.379V86.8969H106.207V82.0693Z" fill="black"/>
<path id="Vector_211" d="M115.862 82.0693H111.035V86.8969H115.862V82.0693Z" fill="black"/>
<path id="Vector_212" d="M120.69 82.0693H115.862V86.8969H120.69V82.0693Z" fill="black"/>
<path id="Vector_213" d="M130.345 82.0693H125.518V86.8969H130.345V82.0693Z" fill="black"/>
<path id="Vector_214" d="M14.4829 86.8965H9.65527V91.7241H14.4829V86.8965Z" fill="black"/>
<path id="Vector_215" d="M24.1381 86.8965H19.3105V91.7241H24.1381V86.8965Z" fill="black"/>
<path id="Vector_216" d="M28.9658 86.8965H24.1382V91.7241H28.9658V86.8965Z" fill="black"/>
<path id="Vector_217" d="M33.7934 86.8965H28.9658V91.7241H33.7934V86.8965Z" fill="black"/>
<path id="Vector_218" d="M43.4482 86.8965H38.6206V91.7241H43.4482V86.8965Z" fill="black"/>
<path id="Vector_219" d="M48.2758 86.8965H43.4482V91.7241H48.2758V86.8965Z" fill="black"/>
<path id="Vector_220" d="M53.1035 86.8965H48.2759V91.7241H53.1035V86.8965Z" fill="black"/>
<path id="Vector_221" d="M62.7587 86.8965H57.9312V91.7241H62.7587V86.8965Z" fill="black"/>
<path id="Vector_222" d="M67.5864 86.8965H62.7588V91.7241H67.5864V86.8965Z" fill="black"/>
<path id="Vector_223" d="M82.0693 86.8965H77.2417V91.7241H82.0693V86.8965Z" fill="black"/>
<path id="Vector_224" d="M91.7241 86.8965H86.8965V91.7241H91.7241V86.8965Z" fill="black"/>
<path id="Vector_225" d="M96.5517 86.8965H91.7241V91.7241H96.5517V86.8965Z" fill="black"/>
<path id="Vector_226" d="M101.379 86.8965H96.5518V91.7241H101.379V86.8965Z" fill="black"/>
<path id="Vector_227" d="M106.207 86.8965H101.379V91.7241H106.207V86.8965Z" fill="black"/>
<path id="Vector_228" d="M111.035 86.8965H106.207V91.7241H111.035V86.8965Z" fill="black"/>
<path id="Vector_229" d="M125.518 86.8965H120.69V91.7241H125.518V86.8965Z" fill="black"/>
<path id="Vector_230" d="M130.345 86.8965H125.518V91.7241H130.345V86.8965Z" fill="black"/>
<path id="Vector_231" d="M53.1035 91.7246H48.2759V96.5522H53.1035V91.7246Z" fill="black"/>
<path id="Vector_232" d="M67.5864 91.7246H62.7588V96.5522H67.5864V91.7246Z" fill="black"/>
<path id="Vector_233" d="M77.2416 91.7246H72.4141V96.5522H77.2416V91.7246Z" fill="black"/>
<path id="Vector_234" d="M82.0693 91.7246H77.2417V96.5522H82.0693V91.7246Z" fill="black"/>
<path id="Vector_235" d="M86.8964 91.7246H82.0688V96.5522H86.8964V91.7246Z" fill="black"/>
<path id="Vector_236" d="M91.7241 91.7246H86.8965V96.5522H91.7241V91.7246Z" fill="black"/>
<path id="Vector_237" d="M111.035 91.7246H106.207V96.5522H111.035V91.7246Z" fill="black"/>
<path id="Vector_238" d="M125.518 91.7246H120.69V96.5522H125.518V91.7246Z" fill="black"/>
<path id="Vector_239" d="M130.345 91.7246H125.518V96.5522H130.345V91.7246Z" fill="black"/>
<path id="Vector_240" d="M14.4829 96.5518H9.65527V101.379H14.4829V96.5518Z" fill="black"/>
<path id="Vector_241" d="M19.3105 96.5518H14.4829V101.379H19.3105V96.5518Z" fill="black"/>
<path id="Vector_242" d="M24.1381 96.5518H19.3105V101.379H24.1381V96.5518Z" fill="black"/>
<path id="Vector_243" d="M28.9658 96.5518H24.1382V101.379H28.9658V96.5518Z" fill="black"/>
<path id="Vector_244" d="M33.7934 96.5518H28.9658V101.379H33.7934V96.5518Z" fill="black"/>
<path id="Vector_245" d="M38.6206 96.5518H33.793V101.379H38.6206V96.5518Z" fill="black"/>
<path id="Vector_246" d="M43.4482 96.5518H38.6206V101.379H43.4482V96.5518Z" fill="black"/>
<path id="Vector_247" d="M57.9311 96.5518H53.1035V101.379H57.9311V96.5518Z" fill="black"/>
<path id="Vector_248" d="M67.5864 96.5518H62.7588V101.379H67.5864V96.5518Z" fill="black"/>
<path id="Vector_249" d="M72.414 96.5518H67.5864V101.379H72.414V96.5518Z" fill="black"/>
<path id="Vector_250" d="M91.7241 96.5518H86.8965V101.379H91.7241V96.5518Z" fill="black"/>
<path id="Vector_251" d="M101.379 96.5518H96.5518V101.379H101.379V96.5518Z" fill="black"/>
<path id="Vector_252" d="M111.035 96.5518H106.207V101.379H111.035V96.5518Z" fill="black"/>
<path id="Vector_253" d="M120.69 96.5518H115.862V101.379H120.69V96.5518Z" fill="black"/>
<path id="Vector_254" d="M125.518 96.5518H120.69V101.379H125.518V96.5518Z" fill="black"/>
<path id="Vector_255" d="M14.4829 101.38H9.65527V106.207H14.4829V101.38Z" fill="black"/>
<path id="Vector_256" d="M43.4482 101.38H38.6206V106.207H43.4482V101.38Z" fill="black"/>
<path id="Vector_257" d="M53.1035 101.38H48.2759V106.207H53.1035V101.38Z" fill="black"/>
<path id="Vector_258" d="M57.9311 101.38H53.1035V106.207H57.9311V101.38Z" fill="black"/>
<path id="Vector_259" d="M62.7587 101.38H57.9312V106.207H62.7587V101.38Z" fill="black"/>
<path id="Vector_260" d="M67.5864 101.38H62.7588V106.207H67.5864V101.38Z" fill="black"/>
<path id="Vector_261" d="M72.414 101.38H67.5864V106.207H72.414V101.38Z" fill="black"/>
<path id="Vector_262" d="M77.2416 101.38H72.4141V106.207H77.2416V101.38Z" fill="black"/>
<path id="Vector_263" d="M82.0693 101.38H77.2417V106.207H82.0693V101.38Z" fill="black"/>
<path id="Vector_264" d="M91.7241 101.38H86.8965V106.207H91.7241V101.38Z" fill="black"/>
<path id="Vector_265" d="M111.035 101.38H106.207V106.207H111.035V101.38Z" fill="black"/>
<path id="Vector_266" d="M115.862 101.38H111.035V106.207H115.862V101.38Z" fill="black"/>
<path id="Vector_267" d="M120.69 101.38H115.862V106.207H120.69V101.38Z" fill="black"/>
<path id="Vector_268" d="M125.518 101.38H120.69V106.207H125.518V101.38Z" fill="black"/>
<path id="Vector_269" d="M14.4829 106.207H9.65527V111.035H14.4829V106.207Z" fill="black"/>
<path id="Vector_270" d="M24.1381 106.207H19.3105V111.035H24.1381V106.207Z" fill="black"/>
<path id="Vector_271" d="M28.9658 106.207H24.1382V111.035H28.9658V106.207Z" fill="black"/>
<path id="Vector_272" d="M33.7934 106.207H28.9658V111.035H33.7934V106.207Z" fill="black"/>
<path id="Vector_273" d="M43.4482 106.207H38.6206V111.035H43.4482V106.207Z" fill="black"/>
<path id="Vector_274" d="M53.1035 106.207H48.2759V111.035H53.1035V106.207Z" fill="black"/>
<path id="Vector_275" d="M57.9311 106.207H53.1035V111.035H57.9311V106.207Z" fill="black"/>
<path id="Vector_276" d="M62.7587 106.207H57.9312V111.035H62.7587V106.207Z" fill="black"/>
<path id="Vector_277" d="M67.5864 106.207H62.7588V111.035H67.5864V106.207Z" fill="black"/>
<path id="Vector_278" d="M86.8964 106.207H82.0688V111.035H86.8964V106.207Z" fill="black"/>
<path id="Vector_279" d="M91.7241 106.207H86.8965V111.035H91.7241V106.207Z" fill="black"/>
<path id="Vector_280" d="M96.5517 106.207H91.7241V111.035H96.5517V106.207Z" fill="black"/>
<path id="Vector_281" d="M101.379 106.207H96.5518V111.035H101.379V106.207Z" fill="black"/>
<path id="Vector_282" d="M106.207 106.207H101.379V111.035H106.207V106.207Z" fill="black"/>
<path id="Vector_283" d="M111.035 106.207H106.207V111.035H111.035V106.207Z" fill="black"/>
<path id="Vector_284" d="M115.862 106.207H111.035V111.035H115.862V106.207Z" fill="black"/>
<path id="Vector_285" d="M120.69 106.207H115.862V111.035H120.69V106.207Z" fill="black"/>
<path id="Vector_286" d="M125.518 106.207H120.69V111.035H125.518V106.207Z" fill="black"/>
<path id="Vector_287" d="M14.4829 111.034H9.65527V115.862H14.4829V111.034Z" fill="black"/>
<path id="Vector_288" d="M24.1381 111.034H19.3105V115.862H24.1381V111.034Z" fill="black"/>
<path id="Vector_289" d="M28.9658 111.034H24.1382V115.862H28.9658V111.034Z" fill="black"/>
<path id="Vector_290" d="M33.7934 111.034H28.9658V115.862H33.7934V111.034Z" fill="black"/>
<path id="Vector_291" d="M43.4482 111.034H38.6206V115.862H43.4482V111.034Z" fill="black"/>
<path id="Vector_292" d="M72.414 111.034H67.5864V115.862H72.414V111.034Z" fill="black"/>
<path id="Vector_293" d="M77.2416 111.034H72.4141V115.862H77.2416V111.034Z" fill="black"/>
<path id="Vector_294" d="M82.0693 111.034H77.2417V115.862H82.0693V111.034Z" fill="black"/>
<path id="Vector_295" d="M86.8964 111.034H82.0688V115.862H86.8964V111.034Z" fill="black"/>
<path id="Vector_296" d="M91.7241 111.034H86.8965V115.862H91.7241V111.034Z" fill="black"/>
<path id="Vector_297" d="M96.5517 111.034H91.7241V115.862H96.5517V111.034Z" fill="black"/>
<path id="Vector_298" d="M101.379 111.034H96.5518V115.862H101.379V111.034Z" fill="black"/>
<path id="Vector_299" d="M111.035 111.034H106.207V115.862H111.035V111.034Z" fill="black"/>
<path id="Vector_300" d="M115.862 111.034H111.035V115.862H115.862V111.034Z" fill="black"/>
<path id="Vector_301" d="M125.518 111.034H120.69V115.862H125.518V111.034Z" fill="black"/>
<path id="Vector_302" d="M14.4829 115.862H9.65527V120.69H14.4829V115.862Z" fill="black"/>
<path id="Vector_303" d="M24.1381 115.862H19.3105V120.69H24.1381V115.862Z" fill="black"/>
<path id="Vector_304" d="M28.9658 115.862H24.1382V120.69H28.9658V115.862Z" fill="black"/>
<path id="Vector_305" d="M33.7934 115.862H28.9658V120.69H33.7934V115.862Z" fill="black"/>
<path id="Vector_306" d="M43.4482 115.862H38.6206V120.69H43.4482V115.862Z" fill="black"/>
<path id="Vector_307" d="M53.1035 115.862H48.2759V120.69H53.1035V115.862Z" fill="black"/>
<path id="Vector_308" d="M62.7587 115.862H57.9312V120.69H62.7587V115.862Z" fill="black"/>
<path id="Vector_309" d="M72.414 115.862H67.5864V120.69H72.414V115.862Z" fill="black"/>
<path id="Vector_310" d="M82.0693 115.862H77.2417V120.69H82.0693V115.862Z" fill="black"/>
<path id="Vector_311" d="M86.8964 115.862H82.0688V120.69H86.8964V115.862Z" fill="black"/>
<path id="Vector_312" d="M96.5517 115.862H91.7241V120.69H96.5517V115.862Z" fill="black"/>
<path id="Vector_313" d="M101.379 115.862H96.5518V120.69H101.379V115.862Z" fill="black"/>
<path id="Vector_314" d="M120.69 115.862H115.862V120.69H120.69V115.862Z" fill="black"/>
<path id="Vector_315" d="M130.345 115.862H125.518V120.69H130.345V115.862Z" fill="black"/>
<path id="Vector_316" d="M14.4829 120.689H9.65527V125.517H14.4829V120.689Z" fill="black"/>
<path id="Vector_317" d="M43.4482 120.689H38.6206V125.517H43.4482V120.689Z" fill="black"/>
<path id="Vector_318" d="M62.7587 120.689H57.9312V125.517H62.7587V120.689Z" fill="black"/>
<path id="Vector_319" d="M86.8964 120.689H82.0688V125.517H86.8964V120.689Z" fill="black"/>
<path id="Vector_320" d="M101.379 120.689H96.5518V125.517H101.379V120.689Z" fill="black"/>
<path id="Vector_321" d="M111.035 120.689H106.207V125.517H111.035V120.689Z" fill="black"/>
<path id="Vector_322" d="M120.69 120.689H115.862V125.517H120.69V120.689Z" fill="black"/>
<path id="Vector_323" d="M125.518 120.689H120.69V125.517H125.518V120.689Z" fill="black"/>
<path id="Vector_324" d="M14.4829 125.518H9.65527V130.345H14.4829V125.518Z" fill="black"/>
<path id="Vector_325" d="M19.3105 125.518H14.4829V130.345H19.3105V125.518Z" fill="black"/>
<path id="Vector_326" d="M24.1381 125.518H19.3105V130.345H24.1381V125.518Z" fill="black"/>
<path id="Vector_327" d="M28.9658 125.518H24.1382V130.345H28.9658V125.518Z" fill="black"/>
<path id="Vector_328" d="M33.7934 125.518H28.9658V130.345H33.7934V125.518Z" fill="black"/>
<path id="Vector_329" d="M38.6206 125.518H33.793V130.345H38.6206V125.518Z" fill="black"/>
<path id="Vector_330" d="M43.4482 125.518H38.6206V130.345H43.4482V125.518Z" fill="black"/>
<path id="Vector_331" d="M77.2416 125.518H72.4141V130.345H77.2416V125.518Z" fill="black"/>
<path id="Vector_332" d="M91.7241 125.518H86.8965V130.345H91.7241V125.518Z" fill="black"/>
<path id="Vector_333" d="M96.5517 125.518H91.7241V130.345H96.5517V125.518Z" fill="black"/>
<path id="Vector_334" d="M106.207 125.518H101.379V130.345H106.207V125.518Z" fill="black"/>
<path id="Vector_335" d="M111.035 125.518H106.207V130.345H111.035V125.518Z" fill="black"/>
<path id="Vector_336" d="M125.518 125.518H120.69V130.345H125.518V125.518Z" fill="black"/>
<path id="Vector_337" d="M130.345 125.518H125.518V130.345H130.345V125.518Z" fill="black"/>
</g>
</g>
<defs>
<clipPath id="clip0_2147_85003">
<rect width="140" height="140" fill="white"/>
</clipPath>
</defs>
</svg>
