<svg width="56" height="56" viewBox="0 0 56 56" fill="none" xmlns="http://www.w3.org/2000/svg">
<g id="vuesax/bold/notification">
<g id="notification">
<path id="Vector" d="M45.1267 33.81L42.7934 29.9367C42.3034 29.0733 41.86 27.44 41.86 26.4833V20.58C41.86 15.0967 38.64 10.36 33.9967 8.14333C32.7834 5.99667 30.5434 4.66667 27.9767 4.66667C25.4334 4.66667 23.1467 6.04333 21.9334 8.21333C17.3834 10.4767 14.2334 15.1667 14.2334 20.58V26.4833C14.2334 27.44 13.79 29.0733 13.3 29.9133L10.9434 33.81C10.01 35.3733 9.80003 37.1 10.3834 38.6867C10.9434 40.25 12.2734 41.4633 14 42.0467C18.5267 43.5867 23.2867 44.3333 28.0467 44.3333C32.8067 44.3333 37.5667 43.5867 42.0934 42.07C43.7267 41.5333 44.9867 40.2967 45.5934 38.6867C46.2 37.0767 46.0367 35.3033 45.1267 33.81Z" fill="#FFBE00"/>
<path id="Vector_2" d="M34.6033 46.69C33.6233 49.3967 31.0333 51.3333 27.9999 51.3333C26.1566 51.3333 24.3366 50.5867 23.0533 49.2567C22.3066 48.5567 21.7466 47.6233 21.4199 46.6667C21.7233 46.7133 22.0266 46.7367 22.3533 46.7833C22.8899 46.8533 23.4499 46.9233 24.0099 46.97C25.3399 47.0867 26.6933 47.1567 28.0466 47.1567C29.3766 47.1567 30.7066 47.0867 32.0133 46.97C32.5033 46.9233 32.9933 46.9 33.4599 46.83C33.8333 46.7833 34.2066 46.7367 34.6033 46.69Z" fill="#FFBE00"/>
</g>
</g>
</svg>
